<mxfile host="app.diagrams.net" modified="2022-06-17T13:30:11.366Z" agent="5.0 (Windows NT 10.0; Win64; x64) AppleWebKit/537.36 (KHTML, like Gecko) Chrome/102.0.5005.124 Safari/537.36 Edg/102.0.1245.44" etag="AlkPtd4l-l4CgbxmtOW0" version="18.0.2" type="github" pages="2">
  <diagram id="C5RBs43oDa-KdzZeNtuy" name="Page-1">
    <mxGraphModel dx="1132" dy="1768" grid="1" gridSize="10" guides="1" tooltips="1" connect="1" arrows="1" fold="1" page="1" pageScale="1" pageWidth="827" pageHeight="1169" math="0" shadow="0">
      <root>
        <mxCell id="WIyWlLk6GJQsqaUBKTNV-0" />
        <mxCell id="WIyWlLk6GJQsqaUBKTNV-1" parent="WIyWlLk6GJQsqaUBKTNV-0" />
        <mxCell id="VQEWSec1oIOiXL82U8FW-15" value="Triage Process" style="shape=process;whiteSpace=wrap;html=1;backgroundOutline=1;rounded=0;glass=0;strokeWidth=1;shadow=0;sketch=1;" parent="WIyWlLk6GJQsqaUBKTNV-1" vertex="1">
          <mxGeometry x="40" y="80" width="280" height="150" as="geometry" />
        </mxCell>
        <mxCell id="WIyWlLk6GJQsqaUBKTNV-2" value="" style="rounded=0;html=1;jettySize=auto;orthogonalLoop=1;fontSize=11;endArrow=block;endFill=0;endSize=8;strokeWidth=1;shadow=0;labelBackgroundColor=none;edgeStyle=orthogonalEdgeStyle;sketch=1;curved=1;" parent="WIyWlLk6GJQsqaUBKTNV-1" source="WIyWlLk6GJQsqaUBKTNV-3" target="WIyWlLk6GJQsqaUBKTNV-6" edge="1">
          <mxGeometry relative="1" as="geometry" />
        </mxCell>
        <mxCell id="VQEWSec1oIOiXL82U8FW-16" value="" style="edgeStyle=orthogonalEdgeStyle;rounded=0;orthogonalLoop=1;jettySize=auto;html=1;startArrow=classic;startFill=1;endArrow=none;endFill=0;sketch=1;curved=1;" parent="WIyWlLk6GJQsqaUBKTNV-1" source="WIyWlLk6GJQsqaUBKTNV-3" target="VQEWSec1oIOiXL82U8FW-17" edge="1">
          <mxGeometry relative="1" as="geometry" />
        </mxCell>
        <mxCell id="WIyWlLk6GJQsqaUBKTNV-3" value="RAI/HRU Assessment" style="rounded=0;whiteSpace=wrap;html=1;fontSize=12;glass=0;strokeWidth=1;shadow=0;sketch=1;" parent="WIyWlLk6GJQsqaUBKTNV-1" vertex="1">
          <mxGeometry x="174" y="180" width="120" height="40" as="geometry" />
        </mxCell>
        <mxCell id="WIyWlLk6GJQsqaUBKTNV-5" value="No" style="edgeStyle=orthogonalEdgeStyle;rounded=0;html=1;jettySize=auto;orthogonalLoop=1;fontSize=11;endArrow=block;endFill=0;endSize=8;strokeWidth=1;shadow=0;labelBackgroundColor=none;sketch=1;curved=1;" parent="WIyWlLk6GJQsqaUBKTNV-1" source="WIyWlLk6GJQsqaUBKTNV-6" target="WIyWlLk6GJQsqaUBKTNV-7" edge="1">
          <mxGeometry y="10" relative="1" as="geometry">
            <mxPoint as="offset" />
          </mxGeometry>
        </mxCell>
        <mxCell id="VQEWSec1oIOiXL82U8FW-3" value="" style="edgeStyle=orthogonalEdgeStyle;rounded=0;orthogonalLoop=1;jettySize=auto;html=1;sketch=1;curved=1;" parent="WIyWlLk6GJQsqaUBKTNV-1" source="WIyWlLk6GJQsqaUBKTNV-6" target="VQEWSec1oIOiXL82U8FW-2" edge="1">
          <mxGeometry relative="1" as="geometry" />
        </mxCell>
        <mxCell id="VQEWSec1oIOiXL82U8FW-4" value="Yes" style="edgeLabel;html=1;align=center;verticalAlign=middle;resizable=0;points=[];sketch=1;rounded=0;" parent="VQEWSec1oIOiXL82U8FW-3" vertex="1" connectable="0">
          <mxGeometry x="-0.2667" y="-9" relative="1" as="geometry">
            <mxPoint as="offset" />
          </mxGeometry>
        </mxCell>
        <mxCell id="WIyWlLk6GJQsqaUBKTNV-6" value="HRU Risk?" style="rhombus;whiteSpace=wrap;html=1;shadow=0;fontFamily=Helvetica;fontSize=12;align=center;strokeWidth=1;spacing=6;spacingTop=-4;sketch=1;rounded=0;" parent="WIyWlLk6GJQsqaUBKTNV-1" vertex="1">
          <mxGeometry x="184" y="270" width="100" height="80" as="geometry" />
        </mxCell>
        <mxCell id="VQEWSec1oIOiXL82U8FW-1" value="" style="edgeStyle=orthogonalEdgeStyle;rounded=0;orthogonalLoop=1;jettySize=auto;html=1;sketch=1;curved=1;" parent="WIyWlLk6GJQsqaUBKTNV-1" source="WIyWlLk6GJQsqaUBKTNV-7" target="VQEWSec1oIOiXL82U8FW-0" edge="1">
          <mxGeometry relative="1" as="geometry" />
        </mxCell>
        <mxCell id="WIyWlLk6GJQsqaUBKTNV-7" value="request approval&lt;br&gt;to Service Delivery Manager" style="rounded=0;whiteSpace=wrap;html=1;fontSize=12;glass=0;strokeWidth=1;shadow=0;sketch=1;" parent="WIyWlLk6GJQsqaUBKTNV-1" vertex="1">
          <mxGeometry x="394" y="260" width="120" height="100" as="geometry" />
        </mxCell>
        <mxCell id="VQEWSec1oIOiXL82U8FW-20" style="edgeStyle=orthogonalEdgeStyle;rounded=0;orthogonalLoop=1;jettySize=auto;html=1;startArrow=none;startFill=0;endArrow=classic;endFill=1;sketch=1;curved=1;" parent="WIyWlLk6GJQsqaUBKTNV-1" source="VQEWSec1oIOiXL82U8FW-0" target="VQEWSec1oIOiXL82U8FW-18" edge="1">
          <mxGeometry relative="1" as="geometry" />
        </mxCell>
        <mxCell id="VQEWSec1oIOiXL82U8FW-0" value="&lt;span style=&quot;&quot;&gt;email approval by Service Delivery Manager&lt;/span&gt;" style="whiteSpace=wrap;html=1;rounded=0;glass=0;strokeWidth=1;shadow=0;sketch=1;" parent="WIyWlLk6GJQsqaUBKTNV-1" vertex="1">
          <mxGeometry x="654" y="260" width="120" height="100" as="geometry" />
        </mxCell>
        <mxCell id="VQEWSec1oIOiXL82U8FW-6" value="" style="edgeStyle=orthogonalEdgeStyle;rounded=0;orthogonalLoop=1;jettySize=auto;html=1;entryX=0.5;entryY=0;entryDx=0;entryDy=0;sketch=1;curved=1;" parent="WIyWlLk6GJQsqaUBKTNV-1" source="VQEWSec1oIOiXL82U8FW-2" target="VQEWSec1oIOiXL82U8FW-7" edge="1">
          <mxGeometry relative="1" as="geometry" />
        </mxCell>
        <mxCell id="VQEWSec1oIOiXL82U8FW-2" value="SteerCo decision to proceed" style="rounded=0;whiteSpace=wrap;html=1;shadow=0;strokeWidth=1;spacing=6;spacingTop=-4;sketch=1;" parent="WIyWlLk6GJQsqaUBKTNV-1" vertex="1">
          <mxGeometry x="174" y="440" width="120" height="60" as="geometry" />
        </mxCell>
        <mxCell id="VQEWSec1oIOiXL82U8FW-9" value="" style="edgeStyle=orthogonalEdgeStyle;rounded=0;orthogonalLoop=1;jettySize=auto;html=1;sketch=1;curved=1;" parent="WIyWlLk6GJQsqaUBKTNV-1" source="VQEWSec1oIOiXL82U8FW-7" target="VQEWSec1oIOiXL82U8FW-8" edge="1">
          <mxGeometry relative="1" as="geometry" />
        </mxCell>
        <mxCell id="VQEWSec1oIOiXL82U8FW-10" value="Yes" style="edgeLabel;html=1;align=center;verticalAlign=middle;resizable=0;points=[];sketch=1;rounded=0;" parent="VQEWSec1oIOiXL82U8FW-9" vertex="1" connectable="0">
          <mxGeometry x="-0.2222" y="4" relative="1" as="geometry">
            <mxPoint y="-2" as="offset" />
          </mxGeometry>
        </mxCell>
        <mxCell id="VQEWSec1oIOiXL82U8FW-12" value="" style="edgeStyle=orthogonalEdgeStyle;rounded=0;orthogonalLoop=1;jettySize=auto;html=1;sketch=1;curved=1;entryX=0.5;entryY=0;entryDx=0;entryDy=0;" parent="WIyWlLk6GJQsqaUBKTNV-1" source="VQEWSec1oIOiXL82U8FW-7" target="VQEWSec1oIOiXL82U8FW-14" edge="1">
          <mxGeometry relative="1" as="geometry">
            <mxPoint x="234" y="760" as="targetPoint" />
          </mxGeometry>
        </mxCell>
        <mxCell id="VQEWSec1oIOiXL82U8FW-13" value="No" style="edgeLabel;html=1;align=center;verticalAlign=middle;resizable=0;points=[];sketch=1;rounded=0;" parent="VQEWSec1oIOiXL82U8FW-12" vertex="1" connectable="0">
          <mxGeometry x="-0.2667" relative="1" as="geometry">
            <mxPoint as="offset" />
          </mxGeometry>
        </mxCell>
        <mxCell id="VQEWSec1oIOiXL82U8FW-7" value="Proceed?" style="rhombus;whiteSpace=wrap;html=1;shadow=0;fontFamily=Helvetica;fontSize=12;align=center;strokeWidth=1;spacing=6;spacingTop=-4;sketch=1;rounded=0;" parent="WIyWlLk6GJQsqaUBKTNV-1" vertex="1">
          <mxGeometry x="184" y="590" width="100" height="80" as="geometry" />
        </mxCell>
        <mxCell id="VQEWSec1oIOiXL82U8FW-19" style="edgeStyle=orthogonalEdgeStyle;rounded=0;orthogonalLoop=1;jettySize=auto;html=1;startArrow=none;startFill=0;endArrow=classic;endFill=1;sketch=1;curved=1;" parent="WIyWlLk6GJQsqaUBKTNV-1" source="VQEWSec1oIOiXL82U8FW-8" target="VQEWSec1oIOiXL82U8FW-18" edge="1">
          <mxGeometry relative="1" as="geometry" />
        </mxCell>
        <mxCell id="VQEWSec1oIOiXL82U8FW-8" value="Amendment with full HRU coverage" style="rounded=0;whiteSpace=wrap;html=1;shadow=0;strokeWidth=1;spacing=6;spacingTop=-4;sketch=1;" parent="WIyWlLk6GJQsqaUBKTNV-1" vertex="1">
          <mxGeometry x="394" y="580" width="120" height="100" as="geometry" />
        </mxCell>
        <mxCell id="VQEWSec1oIOiXL82U8FW-14" value="Use Case discarded&lt;br&gt;(delivery not started)" style="ellipse;whiteSpace=wrap;html=1;shadow=0;strokeWidth=1;spacing=6;spacingTop=-4;sketch=1;rounded=0;" parent="WIyWlLk6GJQsqaUBKTNV-1" vertex="1">
          <mxGeometry x="164" y="890" width="140" height="60" as="geometry" />
        </mxCell>
        <mxCell id="VQEWSec1oIOiXL82U8FW-17" value="&lt;span style=&quot;&quot;&gt;Executed by&lt;/span&gt;&lt;br style=&quot;&quot;&gt;&lt;span style=&quot;&quot;&gt;Program Architect&lt;br&gt;&lt;/span&gt;with&lt;br style=&quot;&quot;&gt;&lt;span style=&quot;&quot;&gt;TQA &amp;amp; ORA&lt;/span&gt;" style="shape=document;whiteSpace=wrap;html=1;boundedLbl=1;sketch=1;rounded=0;" parent="WIyWlLk6GJQsqaUBKTNV-1" vertex="1">
          <mxGeometry x="480" y="40" width="160" height="100" as="geometry" />
        </mxCell>
        <mxCell id="CRKqUxFijxpEYJfIkpXJ-4" value="" style="edgeStyle=orthogonalEdgeStyle;curved=1;sketch=1;orthogonalLoop=1;jettySize=auto;html=1;startArrow=none;startFill=0;endArrow=classic;endFill=1;" edge="1" parent="WIyWlLk6GJQsqaUBKTNV-1" source="VQEWSec1oIOiXL82U8FW-18" target="CRKqUxFijxpEYJfIkpXJ-0">
          <mxGeometry relative="1" as="geometry" />
        </mxCell>
        <mxCell id="VQEWSec1oIOiXL82U8FW-18" value="&lt;span style=&quot;&quot;&gt;archive document for Track Record&lt;/span&gt;" style="whiteSpace=wrap;html=1;rounded=0;glass=0;strokeWidth=1;shadow=0;sketch=1;" parent="WIyWlLk6GJQsqaUBKTNV-1" vertex="1">
          <mxGeometry x="654" y="580" width="120" height="100" as="geometry" />
        </mxCell>
        <mxCell id="VQEWSec1oIOiXL82U8FW-21" value="Use Case onboarded&lt;br&gt;(delivery started)" style="ellipse;whiteSpace=wrap;html=1;shadow=0;strokeWidth=1;spacing=6;spacingTop=-4;sketch=1;rounded=0;" parent="WIyWlLk6GJQsqaUBKTNV-1" vertex="1">
          <mxGeometry x="644" y="1060" width="140" height="60" as="geometry" />
        </mxCell>
        <mxCell id="CRKqUxFijxpEYJfIkpXJ-6" value="" style="edgeStyle=orthogonalEdgeStyle;curved=1;sketch=1;orthogonalLoop=1;jettySize=auto;html=1;startArrow=none;startFill=0;endArrow=classic;endFill=1;" edge="1" parent="WIyWlLk6GJQsqaUBKTNV-1" source="CRKqUxFijxpEYJfIkpXJ-0" target="CRKqUxFijxpEYJfIkpXJ-5">
          <mxGeometry relative="1" as="geometry" />
        </mxCell>
        <mxCell id="CRKqUxFijxpEYJfIkpXJ-0" value="SteerCo decision to proceed" style="rounded=0;whiteSpace=wrap;html=1;shadow=0;strokeWidth=1;spacing=6;spacingTop=-4;sketch=1;" vertex="1" parent="WIyWlLk6GJQsqaUBKTNV-1">
          <mxGeometry x="654" y="760" width="120" height="60" as="geometry" />
        </mxCell>
        <mxCell id="CRKqUxFijxpEYJfIkpXJ-7" value="Yes" style="edgeStyle=orthogonalEdgeStyle;curved=1;sketch=1;orthogonalLoop=1;jettySize=auto;html=1;startArrow=none;startFill=0;endArrow=classic;endFill=1;" edge="1" parent="WIyWlLk6GJQsqaUBKTNV-1" source="CRKqUxFijxpEYJfIkpXJ-5" target="VQEWSec1oIOiXL82U8FW-21">
          <mxGeometry relative="1" as="geometry" />
        </mxCell>
        <mxCell id="CRKqUxFijxpEYJfIkpXJ-8" style="edgeStyle=orthogonalEdgeStyle;curved=1;sketch=1;orthogonalLoop=1;jettySize=auto;html=1;entryX=1;entryY=0.5;entryDx=0;entryDy=0;startArrow=none;startFill=0;endArrow=classic;endFill=1;" edge="1" parent="WIyWlLk6GJQsqaUBKTNV-1" source="CRKqUxFijxpEYJfIkpXJ-5" target="VQEWSec1oIOiXL82U8FW-14">
          <mxGeometry relative="1" as="geometry" />
        </mxCell>
        <mxCell id="CRKqUxFijxpEYJfIkpXJ-9" value="No" style="edgeLabel;html=1;align=center;verticalAlign=middle;resizable=0;points=[];" vertex="1" connectable="0" parent="CRKqUxFijxpEYJfIkpXJ-8">
          <mxGeometry x="0.2667" y="3" relative="1" as="geometry">
            <mxPoint as="offset" />
          </mxGeometry>
        </mxCell>
        <mxCell id="CRKqUxFijxpEYJfIkpXJ-5" value="Proceed?" style="rhombus;whiteSpace=wrap;html=1;shadow=0;fontFamily=Helvetica;fontSize=12;align=center;strokeWidth=1;spacing=6;spacingTop=-4;sketch=1;rounded=0;" vertex="1" parent="WIyWlLk6GJQsqaUBKTNV-1">
          <mxGeometry x="664" y="880" width="100" height="80" as="geometry" />
        </mxCell>
      </root>
    </mxGraphModel>
  </diagram>
  <diagram id="mJ9JBWq2EkpWHkgMwlpN" name="Triage Steps">
    <mxGraphModel dx="1132" dy="1768" grid="1" gridSize="10" guides="1" tooltips="1" connect="1" arrows="1" fold="1" page="1" pageScale="1" pageWidth="1169" pageHeight="827" math="0" shadow="0">
      <root>
        <mxCell id="0" />
        <mxCell id="1" parent="0" />
        <mxCell id="Bec2-RsoDI_pXOdM8cqL-1" value="Review Priorities" style="shape=process;whiteSpace=wrap;html=1;backgroundOutline=1;sketch=1;" vertex="1" parent="1">
          <mxGeometry x="100" y="80" width="120" height="60" as="geometry" />
        </mxCell>
        <mxCell id="Bec2-RsoDI_pXOdM8cqL-2" value="OKRs" style="shape=process;whiteSpace=wrap;html=1;backgroundOutline=1;sketch=1;" vertex="1" parent="1">
          <mxGeometry x="100" y="180" width="120" height="60" as="geometry" />
        </mxCell>
        <mxCell id="Bec2-RsoDI_pXOdM8cqL-4" value="Expected Business Outcome" style="shape=process;whiteSpace=wrap;html=1;backgroundOutline=1;sketch=1;" vertex="1" parent="1">
          <mxGeometry x="100" y="280" width="120" height="60" as="geometry" />
        </mxCell>
        <mxCell id="Bec2-RsoDI_pXOdM8cqL-5" value="Dependencies Assessment" style="shape=process;whiteSpace=wrap;html=1;backgroundOutline=1;sketch=1;" vertex="1" parent="1">
          <mxGeometry x="100" y="390" width="120" height="60" as="geometry" />
        </mxCell>
        <mxCell id="Bec2-RsoDI_pXOdM8cqL-6" value="Technical Feasibility" style="shape=process;whiteSpace=wrap;html=1;backgroundOutline=1;sketch=1;" vertex="1" parent="1">
          <mxGeometry x="100" y="500" width="120" height="60" as="geometry" />
        </mxCell>
        <mxCell id="Bec2-RsoDI_pXOdM8cqL-7" value="RAI/HSU Assessment" style="shape=process;whiteSpace=wrap;html=1;backgroundOutline=1;sketch=1;" vertex="1" parent="1">
          <mxGeometry x="100" y="620" width="120" height="60" as="geometry" />
        </mxCell>
      </root>
    </mxGraphModel>
  </diagram>
</mxfile>
